<svg xmlns="http://www.w3.org/2000/svg" viewBox="0 0 200 200">
  <!-- Shopping cart -->
  <path d="M50,160 a15,15 0 1,0 30,0 a15,15 0 1,0 -30,0" stroke="white" stroke-width="5" fill="none"/>
  <path d="M130,160 a15,15 0 1,0 30,0 a15,15 0 1,0 -30,0" stroke="white" stroke-width="5" fill="none"/>
  <path d="M40,40 L60,40 L80,120 L140,120 L160,60 L70,60" stroke="white" stroke-width="5" fill="none"/>
  <path d="M65,100 L135,100" stroke="white" stroke-width="2" fill="none"/>
  <path d="M60,80 L140,80" stroke="white" stroke-width="2" fill="none"/>
  
  <!-- SALE tag -->
  <rect x="120" y="25" width="50" height="25" rx="5" ry="5" fill="white"/>
  <text x="130" y="43" font-family="Arial" font-size="16" font-weight="bold" fill="#4169FF">SALE</text>
  <path d="M135,50 L130,60" stroke="white" stroke-width="2" fill="none"/>
</svg>